<mxfile host="Electron" modified="2024-02-16T11:42:41.163Z" agent="Mozilla/5.0 (Windows NT 10.0; Win64; x64) AppleWebKit/537.36 (KHTML, like Gecko) draw.io/23.1.5 Chrome/120.0.6099.109 Electron/28.1.0 Safari/537.36" etag="RJ1ojjgJuBxzhKwYO8fg" version="23.1.5" type="device">
  <diagram name="Страница — 1" id="BrRdIf7-MBRP2qg0M5hT">
    <mxGraphModel dx="3218" dy="2033" grid="0" gridSize="10" guides="1" tooltips="1" connect="1" arrows="1" fold="1" page="1" pageScale="1" pageWidth="1169" pageHeight="827" math="0" shadow="0">
      <root>
        <mxCell id="0" />
        <mxCell id="1" parent="0" />
        <mxCell id="nMjAK_z7ETHmy8bxgL3Z-1" value="Користувач" style="shape=umlActor;verticalLabelPosition=bottom;verticalAlign=top;html=1;outlineConnect=0;" parent="1" vertex="1">
          <mxGeometry x="-75" y="410" width="50" height="90" as="geometry" />
        </mxCell>
        <mxCell id="fMbS71d6y_WR-DLfGMM9-35" style="edgeStyle=orthogonalEdgeStyle;rounded=0;orthogonalLoop=1;jettySize=auto;html=1;exitX=0.5;exitY=0;exitDx=0;exitDy=0;exitPerimeter=0;fillColor=#0050ef;strokeColor=#001DBC;entryX=0.5;entryY=0;entryDx=0;entryDy=0;entryPerimeter=0;" parent="1" source="nMjAK_z7ETHmy8bxgL3Z-2" target="nMjAK_z7ETHmy8bxgL3Z-1" edge="1">
          <mxGeometry relative="1" as="geometry">
            <mxPoint x="810" y="-148" as="sourcePoint" />
            <mxPoint x="40" y="160" as="targetPoint" />
            <Array as="points">
              <mxPoint x="810" y="60" />
              <mxPoint x="810" y="-50" />
              <mxPoint x="-50" y="-50" />
            </Array>
          </mxGeometry>
        </mxCell>
        <mxCell id="nMjAK_z7ETHmy8bxgL3Z-2" value="" style="shape=umlActor;verticalLabelPosition=bottom;verticalAlign=top;html=1;outlineConnect=0;" parent="1" vertex="1">
          <mxGeometry x="780" y="60" width="50" height="80" as="geometry" />
        </mxCell>
        <mxCell id="nMjAK_z7ETHmy8bxgL3Z-16" value="" style="endArrow=classic;html=1;rounded=0;" parent="1" edge="1">
          <mxGeometry width="50" height="50" relative="1" as="geometry">
            <mxPoint x="620" y="520" as="sourcePoint" />
            <mxPoint x="620" y="520" as="targetPoint" />
          </mxGeometry>
        </mxCell>
        <mxCell id="nMjAK_z7ETHmy8bxgL3Z-30" value="" style="swimlane;startSize=0;strokeColor=#FF6363;" parent="1" vertex="1">
          <mxGeometry x="109" y="-11" width="626" height="976" as="geometry" />
        </mxCell>
        <mxCell id="nMjAK_z7ETHmy8bxgL3Z-15" value="мати доступ до навчальних матеріалів і курсів з безпеки праці або мати надіслати запит на консультацію з цього приводу" style="ellipse;whiteSpace=wrap;html=1;" parent="nMjAK_z7ETHmy8bxgL3Z-30" vertex="1">
          <mxGeometry x="38.75" y="330" width="212.5" height="92.5" as="geometry" />
        </mxCell>
        <mxCell id="nMjAK_z7ETHmy8bxgL3Z-7" value="мати доступ до персоналізованих тренувальних програм, які відповідають його фізичній підготовці, цілям і вподобанням." style="ellipse;whiteSpace=wrap;html=1;" parent="nMjAK_z7ETHmy8bxgL3Z-30" vertex="1">
          <mxGeometry x="47.5" y="590" width="252.5" height="112.5" as="geometry" />
        </mxCell>
        <mxCell id="nMjAK_z7ETHmy8bxgL3Z-9" value="&lt;font style=&quot;font-size: 12px;&quot;&gt;мати можливість займатися спортом із задоволенням завдяки вбудованим розважальним елементам, музичним плейлистам або цікавим тренувальним форматам.&lt;/font&gt;" style="ellipse;whiteSpace=wrap;html=1;" parent="nMjAK_z7ETHmy8bxgL3Z-30" vertex="1">
          <mxGeometry x="11" y="710" width="273" height="112.5" as="geometry" />
        </mxCell>
        <mxCell id="nMjAK_z7ETHmy8bxgL3Z-5" value="отримувати натхнення, мотивацію та підтримку для регулярної фізичної активності. Додаток може надавати мотивуючі цілі, заохочення та нагадування" style="ellipse;whiteSpace=wrap;html=1;" parent="nMjAK_z7ETHmy8bxgL3Z-30" vertex="1">
          <mxGeometry x="34" y="460" width="237.25" height="118" as="geometry" />
        </mxCell>
        <mxCell id="nMjAK_z7ETHmy8bxgL3Z-6" value="можливість відстежувати свій сон або мати надіслати запит на консультацію з цього приводу" style="ellipse;whiteSpace=wrap;html=1;" parent="nMjAK_z7ETHmy8bxgL3Z-30" vertex="1">
          <mxGeometry x="40" y="10" width="210" height="90" as="geometry" />
        </mxCell>
        <mxCell id="nMjAK_z7ETHmy8bxgL3Z-8" value="отримати персоналізовані рекомендації з поліпшеню сну" style="ellipse;whiteSpace=wrap;html=1;" parent="nMjAK_z7ETHmy8bxgL3Z-30" vertex="1">
          <mxGeometry x="72.5" y="110" width="145" height="87.5" as="geometry" />
        </mxCell>
        <mxCell id="nMjAK_z7ETHmy8bxgL3Z-4" value="отримати&amp;nbsp;засоби моніторингу та управління безпекою на робочому місці або мати надіслати запит на консультацію з цього приводу" style="ellipse;whiteSpace=wrap;html=1;" parent="nMjAK_z7ETHmy8bxgL3Z-30" vertex="1">
          <mxGeometry x="40" y="210" width="210" height="107.5" as="geometry" />
        </mxCell>
        <mxCell id="fMbS71d6y_WR-DLfGMM9-32" value="Авторизувати користувача" style="ellipse;whiteSpace=wrap;html=1;" parent="nMjAK_z7ETHmy8bxgL3Z-30" vertex="1">
          <mxGeometry x="300" y="352.5" width="120" height="80" as="geometry" />
        </mxCell>
        <mxCell id="fMbS71d6y_WR-DLfGMM9-53" value="Отримати запит на медичну консультацію" style="ellipse;whiteSpace=wrap;html=1;" parent="nMjAK_z7ETHmy8bxgL3Z-30" vertex="1">
          <mxGeometry x="430" y="150" width="140" height="90" as="geometry" />
        </mxCell>
        <mxCell id="fMbS71d6y_WR-DLfGMM9-54" value="Отримати запит на консультацію забеспечення беспеки праці" style="ellipse;whiteSpace=wrap;html=1;" parent="nMjAK_z7ETHmy8bxgL3Z-30" vertex="1">
          <mxGeometry x="430" y="310" width="140" height="110" as="geometry" />
        </mxCell>
        <mxCell id="fMbS71d6y_WR-DLfGMM9-56" value="Отримати запит на консультацію з аналізу&amp;nbsp; та стеження за продуктивністю спортивних команд та спортсменів." style="ellipse;whiteSpace=wrap;html=1;" parent="nMjAK_z7ETHmy8bxgL3Z-30" vertex="1">
          <mxGeometry x="400" y="570" width="180" height="110" as="geometry" />
        </mxCell>
        <mxCell id="fMbS71d6y_WR-DLfGMM9-59" value="" style="endArrow=none;dashed=1;html=1;rounded=0;exitX=0.992;exitY=0.422;exitDx=0;exitDy=0;exitPerimeter=0;entryX=0.238;entryY=0.994;entryDx=0;entryDy=0;entryPerimeter=0;strokeColor=#00FF00;" parent="nMjAK_z7ETHmy8bxgL3Z-30" source="nMjAK_z7ETHmy8bxgL3Z-7" target="fMbS71d6y_WR-DLfGMM9-32" edge="1">
          <mxGeometry width="50" height="50" relative="1" as="geometry">
            <mxPoint x="240" y="567.5" as="sourcePoint" />
            <mxPoint x="290" y="517.5" as="targetPoint" />
            <Array as="points">
              <mxPoint x="320" y="570" />
            </Array>
          </mxGeometry>
        </mxCell>
        <mxCell id="fMbS71d6y_WR-DLfGMM9-61" value="" style="endArrow=none;dashed=1;html=1;rounded=0;exitX=0.998;exitY=0.41;exitDx=0;exitDy=0;exitPerimeter=0;entryX=0.064;entryY=0.755;entryDx=0;entryDy=0;entryPerimeter=0;strokeColor=#00FF00;" parent="nMjAK_z7ETHmy8bxgL3Z-30" source="nMjAK_z7ETHmy8bxgL3Z-5" target="fMbS71d6y_WR-DLfGMM9-32" edge="1">
          <mxGeometry width="50" height="50" relative="1" as="geometry">
            <mxPoint x="220" y="482.5" as="sourcePoint" />
            <mxPoint x="270" y="432.5" as="targetPoint" />
          </mxGeometry>
        </mxCell>
        <mxCell id="fMbS71d6y_WR-DLfGMM9-62" value="" style="endArrow=none;dashed=1;html=1;rounded=0;exitX=1;exitY=0.5;exitDx=0;exitDy=0;entryX=0;entryY=0.344;entryDx=0;entryDy=0;entryPerimeter=0;strokeColor=#00FF00;" parent="nMjAK_z7ETHmy8bxgL3Z-30" source="nMjAK_z7ETHmy8bxgL3Z-15" target="fMbS71d6y_WR-DLfGMM9-32" edge="1">
          <mxGeometry width="50" height="50" relative="1" as="geometry">
            <mxPoint x="225" y="388" as="sourcePoint" />
            <mxPoint x="275" y="337.5" as="targetPoint" />
          </mxGeometry>
        </mxCell>
        <mxCell id="fMbS71d6y_WR-DLfGMM9-63" value="" style="endArrow=none;dashed=1;html=1;rounded=0;exitX=1;exitY=0.5;exitDx=0;exitDy=0;entryX=0.579;entryY=0.037;entryDx=0;entryDy=0;entryPerimeter=0;strokeColor=#00CC00;" parent="nMjAK_z7ETHmy8bxgL3Z-30" source="nMjAK_z7ETHmy8bxgL3Z-6" target="fMbS71d6y_WR-DLfGMM9-32" edge="1">
          <mxGeometry width="50" height="50" relative="1" as="geometry">
            <mxPoint x="225" y="90" as="sourcePoint" />
            <mxPoint x="275" y="40" as="targetPoint" />
            <Array as="points">
              <mxPoint x="290" y="110" />
            </Array>
          </mxGeometry>
        </mxCell>
        <mxCell id="fMbS71d6y_WR-DLfGMM9-90" value="" style="endArrow=none;dashed=1;html=1;rounded=0;exitX=1;exitY=0.5;exitDx=0;exitDy=0;entryX=0.5;entryY=1;entryDx=0;entryDy=0;strokeColor=#00FF00;" parent="nMjAK_z7ETHmy8bxgL3Z-30" source="nMjAK_z7ETHmy8bxgL3Z-9" target="fMbS71d6y_WR-DLfGMM9-32" edge="1">
          <mxGeometry width="50" height="50" relative="1" as="geometry">
            <mxPoint x="260" y="690" as="sourcePoint" />
            <mxPoint x="310" y="640" as="targetPoint" />
            <Array as="points">
              <mxPoint x="330" y="690" />
            </Array>
          </mxGeometry>
        </mxCell>
        <mxCell id="fMbS71d6y_WR-DLfGMM9-91" value="" style="endArrow=none;dashed=1;html=1;rounded=0;exitX=1;exitY=0.5;exitDx=0;exitDy=0;entryX=0;entryY=0;entryDx=0;entryDy=0;strokeColor=#00FF00;" parent="nMjAK_z7ETHmy8bxgL3Z-30" source="nMjAK_z7ETHmy8bxgL3Z-4" target="fMbS71d6y_WR-DLfGMM9-32" edge="1">
          <mxGeometry width="50" height="50" relative="1" as="geometry">
            <mxPoint x="230" y="280" as="sourcePoint" />
            <mxPoint x="280" y="230" as="targetPoint" />
          </mxGeometry>
        </mxCell>
        <mxCell id="fMbS71d6y_WR-DLfGMM9-92" value="" style="endArrow=none;dashed=1;html=1;rounded=0;exitX=1;exitY=0.5;exitDx=0;exitDy=0;strokeColor=#00FF00;" parent="nMjAK_z7ETHmy8bxgL3Z-30" source="nMjAK_z7ETHmy8bxgL3Z-8" target="fMbS71d6y_WR-DLfGMM9-32" edge="1">
          <mxGeometry width="50" height="50" relative="1" as="geometry">
            <mxPoint x="190" y="190" as="sourcePoint" />
            <mxPoint x="240" y="140" as="targetPoint" />
            <Array as="points">
              <mxPoint x="260" y="180" />
            </Array>
          </mxGeometry>
        </mxCell>
        <mxCell id="sG-ECZADBTKkwsSgiSJS-3" value="" style="endArrow=none;dashed=1;html=1;rounded=0;entryX=0.35;entryY=1.021;entryDx=0;entryDy=0;entryPerimeter=0;strokeColor=#FF66FF;exitX=0;exitY=0.5;exitDx=0;exitDy=0;" parent="nMjAK_z7ETHmy8bxgL3Z-30" source="sG-ECZADBTKkwsSgiSJS-34" target="fMbS71d6y_WR-DLfGMM9-56" edge="1">
          <mxGeometry width="50" height="50" relative="1" as="geometry">
            <mxPoint x="330" y="770" as="sourcePoint" />
            <mxPoint x="380" y="720" as="targetPoint" />
            <Array as="points">
              <mxPoint x="410" y="760" />
            </Array>
          </mxGeometry>
        </mxCell>
        <mxCell id="sG-ECZADBTKkwsSgiSJS-6" value="" style="endArrow=none;dashed=1;html=1;rounded=0;exitX=0.98;exitY=0.293;exitDx=0;exitDy=0;exitPerimeter=0;entryX=-0.008;entryY=0.35;entryDx=0;entryDy=0;entryPerimeter=0;strokeColor=#FF66FF;" parent="nMjAK_z7ETHmy8bxgL3Z-30" source="nMjAK_z7ETHmy8bxgL3Z-8" target="fMbS71d6y_WR-DLfGMM9-53" edge="1">
          <mxGeometry width="50" height="50" relative="1" as="geometry">
            <mxPoint x="390" y="200" as="sourcePoint" />
            <mxPoint x="440" y="150" as="targetPoint" />
            <Array as="points">
              <mxPoint x="330" y="130" />
            </Array>
          </mxGeometry>
        </mxCell>
        <mxCell id="sG-ECZADBTKkwsSgiSJS-7" value="" style="endArrow=none;dashed=1;html=1;rounded=0;exitX=0.99;exitY=0.341;exitDx=0;exitDy=0;exitPerimeter=0;strokeColor=#FF33FF;" parent="nMjAK_z7ETHmy8bxgL3Z-30" source="nMjAK_z7ETHmy8bxgL3Z-6" target="fMbS71d6y_WR-DLfGMM9-53" edge="1">
          <mxGeometry width="50" height="50" relative="1" as="geometry">
            <mxPoint x="400" y="80" as="sourcePoint" />
            <mxPoint x="450" y="30" as="targetPoint" />
            <Array as="points">
              <mxPoint x="350" y="50" />
            </Array>
          </mxGeometry>
        </mxCell>
        <mxCell id="sG-ECZADBTKkwsSgiSJS-8" value="" style="endArrow=none;dashed=1;html=1;rounded=0;exitX=0.983;exitY=0.371;exitDx=0;exitDy=0;exitPerimeter=0;entryX=0;entryY=0;entryDx=0;entryDy=0;strokeColor=#FF66FF;" parent="nMjAK_z7ETHmy8bxgL3Z-30" source="nMjAK_z7ETHmy8bxgL3Z-4" target="fMbS71d6y_WR-DLfGMM9-54" edge="1">
          <mxGeometry width="50" height="50" relative="1" as="geometry">
            <mxPoint x="360" y="290" as="sourcePoint" />
            <mxPoint x="410" y="240" as="targetPoint" />
            <Array as="points">
              <mxPoint x="360" y="220" />
            </Array>
          </mxGeometry>
        </mxCell>
        <mxCell id="sG-ECZADBTKkwsSgiSJS-12" value="extend" style="text;html=1;align=center;verticalAlign=middle;resizable=0;points=[];autosize=1;strokeColor=none;fillColor=none;rotation=-60;" parent="nMjAK_z7ETHmy8bxgL3Z-30" vertex="1">
          <mxGeometry x="410" y="680" width="60" height="30" as="geometry" />
        </mxCell>
        <mxCell id="sG-ECZADBTKkwsSgiSJS-13" value="extend" style="text;html=1;align=center;verticalAlign=middle;resizable=0;points=[];autosize=1;strokeColor=none;fillColor=none;rotation=45;" parent="nMjAK_z7ETHmy8bxgL3Z-30" vertex="1">
          <mxGeometry x="416" y="287.5" width="60" height="30" as="geometry" />
        </mxCell>
        <mxCell id="sG-ECZADBTKkwsSgiSJS-14" value="extend" style="text;html=1;align=center;verticalAlign=middle;resizable=0;points=[];autosize=1;strokeColor=none;fillColor=none;rotation=45;" parent="nMjAK_z7ETHmy8bxgL3Z-30" vertex="1">
          <mxGeometry x="420" y="120" width="60" height="30" as="geometry" />
        </mxCell>
        <mxCell id="sG-ECZADBTKkwsSgiSJS-15" value="extend" style="text;html=1;align=center;verticalAlign=middle;resizable=0;points=[];autosize=1;strokeColor=none;fillColor=none;rotation=30;" parent="nMjAK_z7ETHmy8bxgL3Z-30" vertex="1">
          <mxGeometry x="390" y="150" width="60" height="30" as="geometry" />
        </mxCell>
        <mxCell id="sG-ECZADBTKkwsSgiSJS-22" value="include" style="text;html=1;align=center;verticalAlign=middle;resizable=0;points=[];autosize=1;strokeColor=none;fillColor=none;rotation=-60;" parent="nMjAK_z7ETHmy8bxgL3Z-30" vertex="1">
          <mxGeometry x="265" y="718" width="60" height="30" as="geometry" />
        </mxCell>
        <mxCell id="sG-ECZADBTKkwsSgiSJS-21" value="include" style="text;html=1;align=center;verticalAlign=middle;resizable=0;points=[];autosize=1;strokeColor=none;fillColor=none;rotation=-75;" parent="nMjAK_z7ETHmy8bxgL3Z-30" vertex="1">
          <mxGeometry x="280" y="570" width="60" height="30" as="geometry" />
        </mxCell>
        <mxCell id="sG-ECZADBTKkwsSgiSJS-20" value="include" style="text;html=1;align=center;verticalAlign=middle;resizable=0;points=[];autosize=1;strokeColor=none;fillColor=none;rotation=-75;" parent="nMjAK_z7ETHmy8bxgL3Z-30" vertex="1">
          <mxGeometry x="251.25" y="470" width="60" height="30" as="geometry" />
        </mxCell>
        <mxCell id="sG-ECZADBTKkwsSgiSJS-18" value="include" style="text;html=1;align=center;verticalAlign=middle;resizable=0;points=[];autosize=1;strokeColor=none;fillColor=none;rotation=60;" parent="nMjAK_z7ETHmy8bxgL3Z-30" vertex="1">
          <mxGeometry x="240" y="260" width="60" height="30" as="geometry" />
        </mxCell>
        <mxCell id="sG-ECZADBTKkwsSgiSJS-17" value="include" style="text;html=1;align=center;verticalAlign=middle;resizable=0;points=[];autosize=1;strokeColor=none;fillColor=none;rotation=35;" parent="nMjAK_z7ETHmy8bxgL3Z-30" vertex="1">
          <mxGeometry x="210" y="140" width="60" height="30" as="geometry" />
        </mxCell>
        <mxCell id="sG-ECZADBTKkwsSgiSJS-16" value="include" style="text;html=1;align=center;verticalAlign=middle;resizable=0;points=[];autosize=1;strokeColor=none;fillColor=none;rotation=55;" parent="nMjAK_z7ETHmy8bxgL3Z-30" vertex="1">
          <mxGeometry x="240" y="50" width="60" height="30" as="geometry" />
        </mxCell>
        <mxCell id="sG-ECZADBTKkwsSgiSJS-23" value="" style="triangle;whiteSpace=wrap;html=1;rotation=-180;strokeColor=#FF66FF;" parent="nMjAK_z7ETHmy8bxgL3Z-30" vertex="1">
          <mxGeometry x="241.25" y="30" width="10" height="20" as="geometry" />
        </mxCell>
        <mxCell id="sG-ECZADBTKkwsSgiSJS-25" value="" style="triangle;whiteSpace=wrap;html=1;rotation=-180;strokeColor=#FF66FF;" parent="nMjAK_z7ETHmy8bxgL3Z-30" vertex="1">
          <mxGeometry x="210" y="125" width="10" height="20" as="geometry" />
        </mxCell>
        <mxCell id="sG-ECZADBTKkwsSgiSJS-26" value="" style="triangle;whiteSpace=wrap;html=1;rotation=-210;strokeColor=#FF66FF;" parent="nMjAK_z7ETHmy8bxgL3Z-30" vertex="1">
          <mxGeometry x="241.25" y="240" width="10" height="20" as="geometry" />
        </mxCell>
        <mxCell id="sG-ECZADBTKkwsSgiSJS-27" value="" style="triangle;whiteSpace=wrap;html=1;rotation=-150;strokeColor=#FF66FF;" parent="nMjAK_z7ETHmy8bxgL3Z-30" vertex="1">
          <mxGeometry x="220" y="404" width="10" height="20" as="geometry" />
        </mxCell>
        <mxCell id="sG-ECZADBTKkwsSgiSJS-34" value="" style="triangle;whiteSpace=wrap;html=1;rotation=-180;strokeColor=#FF66FF;" parent="nMjAK_z7ETHmy8bxgL3Z-30" vertex="1">
          <mxGeometry x="284" y="763" width="10" height="20" as="geometry" />
        </mxCell>
        <mxCell id="sG-ECZADBTKkwsSgiSJS-36" value="" style="triangle;whiteSpace=wrap;html=1;rotation=30;strokeColor=#33FF33;" parent="nMjAK_z7ETHmy8bxgL3Z-30" vertex="1">
          <mxGeometry x="287.58" y="370" width="14.85" height="16" as="geometry" />
        </mxCell>
        <mxCell id="sG-ECZADBTKkwsSgiSJS-39" value="" style="triangle;whiteSpace=wrap;html=1;rotation=75;strokeColor=#33FF33;" parent="nMjAK_z7ETHmy8bxgL3Z-30" vertex="1">
          <mxGeometry x="358.5" y="337.67" width="14.85" height="17.22" as="geometry" />
        </mxCell>
        <mxCell id="sG-ECZADBTKkwsSgiSJS-44" value="" style="triangle;whiteSpace=wrap;html=1;rotation=75;strokeColor=#33FF33;" parent="nMjAK_z7ETHmy8bxgL3Z-30" vertex="1">
          <mxGeometry x="331.15" y="338.8" width="14.85" height="18.49" as="geometry" />
        </mxCell>
        <mxCell id="sG-ECZADBTKkwsSgiSJS-46" value="" style="triangle;whiteSpace=wrap;html=1;rotation=60;strokeColor=#33FF33;" parent="nMjAK_z7ETHmy8bxgL3Z-30" vertex="1">
          <mxGeometry x="302" y="347.4" width="17.34" height="15.29" as="geometry" />
        </mxCell>
        <mxCell id="sG-ECZADBTKkwsSgiSJS-48" value="" style="triangle;whiteSpace=wrap;html=1;rotation=-73;strokeColor=#33FF33;" parent="nMjAK_z7ETHmy8bxgL3Z-30" vertex="1">
          <mxGeometry x="300" y="410" width="14.85" height="16" as="geometry" />
        </mxCell>
        <mxCell id="sG-ECZADBTKkwsSgiSJS-49" value="" style="triangle;whiteSpace=wrap;html=1;rotation=-73;strokeColor=#33FF33;" parent="nMjAK_z7ETHmy8bxgL3Z-30" vertex="1">
          <mxGeometry x="321.95" y="427.58" width="14.85" height="17.17" as="geometry" />
        </mxCell>
        <mxCell id="sG-ECZADBTKkwsSgiSJS-51" value="" style="triangle;whiteSpace=wrap;html=1;rotation=-90;strokeColor=#33FF33;" parent="nMjAK_z7ETHmy8bxgL3Z-30" vertex="1">
          <mxGeometry x="352.58" y="432.5" width="14.85" height="16" as="geometry" />
        </mxCell>
        <mxCell id="pny0s1M6HbBYUUlbo2os-1" value="мати можливысть спілкуватися і змагатися з друзями або іншими користувачами програми. Соціальні функції, такі як обмін результатами, челенджі та коментарі, можуть зробити тренування більш захопливими з элементами змагання." style="ellipse;whiteSpace=wrap;html=1;" vertex="1" parent="nMjAK_z7ETHmy8bxgL3Z-30">
          <mxGeometry x="16.33" y="833" width="294.92" height="133" as="geometry" />
        </mxCell>
        <mxCell id="pny0s1M6HbBYUUlbo2os-4" value="include" style="text;html=1;align=center;verticalAlign=middle;resizable=0;points=[];autosize=1;strokeColor=none;fillColor=none;rotation=15;" vertex="1" parent="nMjAK_z7ETHmy8bxgL3Z-30">
          <mxGeometry x="242.43" y="347.40000000000003" width="60" height="30" as="geometry" />
        </mxCell>
        <mxCell id="pny0s1M6HbBYUUlbo2os-6" value="extend" style="text;html=1;align=center;verticalAlign=middle;resizable=0;points=[];autosize=1;strokeColor=none;fillColor=none;rotation=-60;" vertex="1" parent="nMjAK_z7ETHmy8bxgL3Z-30">
          <mxGeometry x="453" y="691" width="60" height="30" as="geometry" />
        </mxCell>
        <mxCell id="pny0s1M6HbBYUUlbo2os-10" value="" style="triangle;whiteSpace=wrap;html=1;rotation=150;strokeColor=#FF66FF;" vertex="1" parent="nMjAK_z7ETHmy8bxgL3Z-30">
          <mxGeometry x="311.25" y="889" width="10" height="20.5" as="geometry" />
        </mxCell>
        <mxCell id="pny0s1M6HbBYUUlbo2os-11" value="" style="endArrow=none;dashed=1;html=1;rounded=0;entryX=0.7;entryY=0.936;entryDx=0;entryDy=0;entryPerimeter=0;strokeColor=#FF66FF;exitX=0;exitY=0.5;exitDx=0;exitDy=0;" edge="1" parent="nMjAK_z7ETHmy8bxgL3Z-30" source="pny0s1M6HbBYUUlbo2os-10" target="fMbS71d6y_WR-DLfGMM9-56">
          <mxGeometry width="50" height="50" relative="1" as="geometry">
            <mxPoint x="420" y="889" as="sourcePoint" />
            <mxPoint x="611.34" y="677" as="targetPoint" />
            <Array as="points">
              <mxPoint x="467" y="807" />
            </Array>
          </mxGeometry>
        </mxCell>
        <mxCell id="pny0s1M6HbBYUUlbo2os-13" value="" style="endArrow=none;dashed=1;html=1;rounded=0;entryX=0.002;entryY=0.63;entryDx=0;entryDy=0;entryPerimeter=0;strokeColor=#FF66FF;exitX=0;exitY=0.5;exitDx=0;exitDy=0;" edge="1" parent="nMjAK_z7ETHmy8bxgL3Z-30" source="pny0s1M6HbBYUUlbo2os-15" target="fMbS71d6y_WR-DLfGMM9-56">
          <mxGeometry width="50" height="50" relative="1" as="geometry">
            <mxPoint x="316" y="665" as="sourcePoint" />
            <mxPoint x="434" y="565" as="targetPoint" />
            <Array as="points">
              <mxPoint x="353" y="653" />
            </Array>
          </mxGeometry>
        </mxCell>
        <mxCell id="pny0s1M6HbBYUUlbo2os-14" value="" style="endArrow=none;dashed=1;html=1;rounded=0;entryX=0.5;entryY=0;entryDx=0;entryDy=0;strokeColor=#FF66FF;exitX=0;exitY=0.5;exitDx=0;exitDy=0;" edge="1" parent="nMjAK_z7ETHmy8bxgL3Z-30" source="pny0s1M6HbBYUUlbo2os-16" target="fMbS71d6y_WR-DLfGMM9-56">
          <mxGeometry width="50" height="50" relative="1" as="geometry">
            <mxPoint x="294" y="522" as="sourcePoint" />
            <mxPoint x="434" y="432.5" as="targetPoint" />
            <Array as="points">
              <mxPoint x="381" y="510.5" />
            </Array>
          </mxGeometry>
        </mxCell>
        <mxCell id="pny0s1M6HbBYUUlbo2os-15" value="" style="triangle;whiteSpace=wrap;html=1;rotation=-180;strokeColor=#FF66FF;" vertex="1" parent="nMjAK_z7ETHmy8bxgL3Z-30">
          <mxGeometry x="300" y="641" width="10" height="20" as="geometry" />
        </mxCell>
        <mxCell id="pny0s1M6HbBYUUlbo2os-16" value="" style="triangle;whiteSpace=wrap;html=1;rotation=-180;strokeColor=#FF66FF;" vertex="1" parent="nMjAK_z7ETHmy8bxgL3Z-30">
          <mxGeometry x="271.25" y="512" width="10" height="20" as="geometry" />
        </mxCell>
        <mxCell id="pny0s1M6HbBYUUlbo2os-18" value="extend" style="text;html=1;align=center;verticalAlign=middle;resizable=0;points=[];autosize=1;strokeColor=none;fillColor=none;rotation=30;" vertex="1" parent="nMjAK_z7ETHmy8bxgL3Z-30">
          <mxGeometry x="450" y="538" width="60" height="30" as="geometry" />
        </mxCell>
        <mxCell id="pny0s1M6HbBYUUlbo2os-19" value="extend" style="text;html=1;align=center;verticalAlign=middle;resizable=0;points=[];autosize=1;strokeColor=none;fillColor=none;rotation=-20;" vertex="1" parent="nMjAK_z7ETHmy8bxgL3Z-30">
          <mxGeometry x="346" y="622" width="60" height="30" as="geometry" />
        </mxCell>
        <mxCell id="pny0s1M6HbBYUUlbo2os-20" value="" style="endArrow=none;dashed=1;html=1;rounded=0;exitX=0;exitY=0.5;exitDx=0;exitDy=0;entryX=0.379;entryY=0.997;entryDx=0;entryDy=0;strokeColor=#FF66FF;entryPerimeter=0;" edge="1" parent="nMjAK_z7ETHmy8bxgL3Z-30" source="sG-ECZADBTKkwsSgiSJS-27" target="fMbS71d6y_WR-DLfGMM9-54">
          <mxGeometry width="50" height="50" relative="1" as="geometry">
            <mxPoint x="220" y="467" as="sourcePoint" />
            <mxPoint x="425" y="543" as="targetPoint" />
            <Array as="points">
              <mxPoint x="369" y="479" />
            </Array>
          </mxGeometry>
        </mxCell>
        <mxCell id="fMbS71d6y_WR-DLfGMM9-44" style="edgeStyle=orthogonalEdgeStyle;rounded=0;orthogonalLoop=1;jettySize=auto;html=1;fillColor=#d5e8d4;gradientColor=#97d077;strokeColor=#82b366;" parent="1" edge="1">
          <mxGeometry relative="1" as="geometry">
            <Array as="points">
              <mxPoint x="900" y="660" />
              <mxPoint x="900" y="988" />
              <mxPoint x="-63" y="988" />
            </Array>
            <mxPoint x="831" y="660" as="sourcePoint" />
            <mxPoint x="-62" y="522" as="targetPoint" />
          </mxGeometry>
        </mxCell>
        <mxCell id="fMbS71d6y_WR-DLfGMM9-9" value="" style="shape=umlActor;verticalLabelPosition=bottom;verticalAlign=top;html=1;outlineConnect=0;" parent="1" vertex="1">
          <mxGeometry x="780" y="570" width="50" height="90" as="geometry" />
        </mxCell>
        <mxCell id="fMbS71d6y_WR-DLfGMM9-38" style="edgeStyle=orthogonalEdgeStyle;rounded=0;orthogonalLoop=1;jettySize=auto;html=1;exitX=1;exitY=0.3333333333333333;exitDx=0;exitDy=0;exitPerimeter=0;fillColor=#d80073;strokeColor=#A50040;entryX=0;entryY=0.3333333333333333;entryDx=0;entryDy=0;entryPerimeter=0;" parent="1" target="nMjAK_z7ETHmy8bxgL3Z-1" edge="1">
          <mxGeometry relative="1" as="geometry">
            <mxPoint x="-92" y="466" as="targetPoint" />
            <Array as="points">
              <mxPoint x="892" y="354" />
              <mxPoint x="892" y="-90" />
              <mxPoint x="-104" y="-90" />
              <mxPoint x="-104" y="440" />
            </Array>
            <mxPoint x="845" y="353.5" as="sourcePoint" />
          </mxGeometry>
        </mxCell>
        <mxCell id="fMbS71d6y_WR-DLfGMM9-25" value="експерт по забеспеченню беспеки праці" style="shape=umlActor;verticalLabelPosition=bottom;verticalAlign=top;html=1;outlineConnect=0;" parent="1" vertex="1">
          <mxGeometry x="793" y="323.5" width="50" height="90" as="geometry" />
        </mxCell>
        <mxCell id="fMbS71d6y_WR-DLfGMM9-26" value="медичний консультант" style="text;html=1;align=center;verticalAlign=middle;resizable=0;points=[];autosize=1;strokeColor=none;fillColor=none;" parent="1" vertex="1">
          <mxGeometry x="732" y="142" width="146" height="26" as="geometry" />
        </mxCell>
        <mxCell id="fMbS71d6y_WR-DLfGMM9-28" value="спортивний консультант" style="text;html=1;align=center;verticalAlign=middle;resizable=0;points=[];autosize=1;strokeColor=none;fillColor=none;" parent="1" vertex="1">
          <mxGeometry x="733" y="677" width="155" height="26" as="geometry" />
        </mxCell>
        <mxCell id="fMbS71d6y_WR-DLfGMM9-64" value="" style="endArrow=classic;html=1;rounded=0;entryX=1;entryY=0.5;entryDx=0;entryDy=0;exitX=0;exitY=0.3333333333333333;exitDx=0;exitDy=0;exitPerimeter=0;" parent="1" source="nMjAK_z7ETHmy8bxgL3Z-2" target="fMbS71d6y_WR-DLfGMM9-53" edge="1">
          <mxGeometry width="50" height="50" relative="1" as="geometry">
            <mxPoint x="700" y="130" as="sourcePoint" />
            <mxPoint x="750" y="80" as="targetPoint" />
          </mxGeometry>
        </mxCell>
        <mxCell id="fMbS71d6y_WR-DLfGMM9-65" value="" style="endArrow=classic;html=1;rounded=0;entryX=1;entryY=0.5;entryDx=0;entryDy=0;exitX=0;exitY=0.3333333333333333;exitDx=0;exitDy=0;exitPerimeter=0;" parent="1" source="fMbS71d6y_WR-DLfGMM9-25" target="fMbS71d6y_WR-DLfGMM9-54" edge="1">
          <mxGeometry width="50" height="50" relative="1" as="geometry">
            <mxPoint x="700" y="280" as="sourcePoint" />
            <mxPoint x="750" y="230" as="targetPoint" />
          </mxGeometry>
        </mxCell>
        <mxCell id="fMbS71d6y_WR-DLfGMM9-67" value="" style="endArrow=classic;html=1;rounded=0;entryX=1;entryY=0.5;entryDx=0;entryDy=0;exitX=0;exitY=0.3333333333333333;exitDx=0;exitDy=0;exitPerimeter=0;" parent="1" source="fMbS71d6y_WR-DLfGMM9-9" target="fMbS71d6y_WR-DLfGMM9-56" edge="1">
          <mxGeometry width="50" height="50" relative="1" as="geometry">
            <mxPoint x="700" y="690" as="sourcePoint" />
            <mxPoint x="750" y="640" as="targetPoint" />
          </mxGeometry>
        </mxCell>
        <mxCell id="nMjAK_z7ETHmy8bxgL3Z-12" value="" style="endArrow=classic;html=1;rounded=0;entryX=0;entryY=0.5;entryDx=0;entryDy=0;exitX=0.5;exitY=0.5;exitDx=0;exitDy=0;exitPerimeter=0;" parent="1" source="nMjAK_z7ETHmy8bxgL3Z-1" target="nMjAK_z7ETHmy8bxgL3Z-15" edge="1">
          <mxGeometry width="50" height="50" relative="1" as="geometry">
            <mxPoint x="70.47999999999976" y="390" as="sourcePoint" />
            <mxPoint x="180.48" y="430" as="targetPoint" />
          </mxGeometry>
        </mxCell>
        <mxCell id="fMbS71d6y_WR-DLfGMM9-48" value="" style="endArrow=classic;html=1;rounded=0;exitX=0.5;exitY=0.5;exitDx=0;exitDy=0;exitPerimeter=0;" parent="1" source="nMjAK_z7ETHmy8bxgL3Z-1" target="nMjAK_z7ETHmy8bxgL3Z-5" edge="1">
          <mxGeometry width="50" height="50" relative="1" as="geometry">
            <mxPoint x="69.51999999999995" y="404" as="sourcePoint" />
            <mxPoint x="190.48" y="480" as="targetPoint" />
          </mxGeometry>
        </mxCell>
        <mxCell id="fMbS71d6y_WR-DLfGMM9-84" value="" style="endArrow=classic;html=1;rounded=0;exitX=0.5;exitY=0.5;exitDx=0;exitDy=0;exitPerimeter=0;entryX=0;entryY=0.5;entryDx=0;entryDy=0;" parent="1" source="nMjAK_z7ETHmy8bxgL3Z-1" target="nMjAK_z7ETHmy8bxgL3Z-6" edge="1">
          <mxGeometry width="50" height="50" relative="1" as="geometry">
            <mxPoint x="440" y="270" as="sourcePoint" />
            <mxPoint x="490" y="220" as="targetPoint" />
          </mxGeometry>
        </mxCell>
        <mxCell id="fMbS71d6y_WR-DLfGMM9-86" value="" style="endArrow=classic;html=1;rounded=0;exitX=0.5;exitY=0.5;exitDx=0;exitDy=0;exitPerimeter=0;entryX=0;entryY=0.361;entryDx=0;entryDy=0;entryPerimeter=0;" parent="1" source="nMjAK_z7ETHmy8bxgL3Z-1" target="nMjAK_z7ETHmy8bxgL3Z-7" edge="1">
          <mxGeometry width="50" height="50" relative="1" as="geometry">
            <mxPoint x="80" y="590" as="sourcePoint" />
            <mxPoint x="130" y="540" as="targetPoint" />
          </mxGeometry>
        </mxCell>
        <mxCell id="fMbS71d6y_WR-DLfGMM9-85" value="" style="endArrow=classic;html=1;rounded=0;exitX=0.5;exitY=0.5;exitDx=0;exitDy=0;exitPerimeter=0;entryX=0;entryY=0.5;entryDx=0;entryDy=0;" parent="1" source="nMjAK_z7ETHmy8bxgL3Z-1" target="nMjAK_z7ETHmy8bxgL3Z-9" edge="1">
          <mxGeometry width="50" height="50" relative="1" as="geometry">
            <mxPoint x="120" y="710" as="sourcePoint" />
            <mxPoint x="170" y="660" as="targetPoint" />
          </mxGeometry>
        </mxCell>
        <mxCell id="fMbS71d6y_WR-DLfGMM9-87" value="" style="endArrow=classic;html=1;rounded=0;entryX=-0.046;entryY=0.58;entryDx=0;entryDy=0;entryPerimeter=0;exitX=1;exitY=0.3333333333333333;exitDx=0;exitDy=0;exitPerimeter=0;" parent="1" target="nMjAK_z7ETHmy8bxgL3Z-8" edge="1" source="nMjAK_z7ETHmy8bxgL3Z-1">
          <mxGeometry width="50" height="50" relative="1" as="geometry">
            <mxPoint x="-20" y="450" as="sourcePoint" />
            <mxPoint x="150" y="170" as="targetPoint" />
          </mxGeometry>
        </mxCell>
        <mxCell id="sG-ECZADBTKkwsSgiSJS-1" style="edgeStyle=orthogonalEdgeStyle;rounded=0;orthogonalLoop=1;jettySize=auto;html=1;entryX=0.025;entryY=0.694;entryDx=0;entryDy=0;entryPerimeter=0;exitX=0.5;exitY=0.5;exitDx=0;exitDy=0;exitPerimeter=0;strokeColor=#007FFF;" parent="1" source="nMjAK_z7ETHmy8bxgL3Z-1" target="fMbS71d6y_WR-DLfGMM9-32" edge="1">
          <mxGeometry relative="1" as="geometry">
            <Array as="points">
              <mxPoint x="370" y="445" />
              <mxPoint x="370" y="398" />
            </Array>
          </mxGeometry>
        </mxCell>
        <mxCell id="pny0s1M6HbBYUUlbo2os-5" value="" style="endArrow=classic;html=1;rounded=0;entryX=-0.008;entryY=0.442;entryDx=0;entryDy=0;entryPerimeter=0;" edge="1" parent="1" target="pny0s1M6HbBYUUlbo2os-1">
          <mxGeometry width="50" height="50" relative="1" as="geometry">
            <mxPoint x="-18" y="445" as="sourcePoint" />
            <mxPoint x="150" y="877" as="targetPoint" />
          </mxGeometry>
        </mxCell>
        <mxCell id="fMbS71d6y_WR-DLfGMM9-88" value="" style="endArrow=classic;html=1;rounded=0;entryX=0;entryY=0.651;entryDx=0;entryDy=0;entryPerimeter=0;exitX=1;exitY=0.3333333333333333;exitDx=0;exitDy=0;exitPerimeter=0;" parent="1" target="nMjAK_z7ETHmy8bxgL3Z-4" edge="1" source="nMjAK_z7ETHmy8bxgL3Z-1">
          <mxGeometry width="50" height="50" relative="1" as="geometry">
            <mxPoint x="-21" y="449" as="sourcePoint" />
            <mxPoint x="159" y="259" as="targetPoint" />
          </mxGeometry>
        </mxCell>
      </root>
    </mxGraphModel>
  </diagram>
</mxfile>
